<svg width="28" height="28" viewBox="0 0 28 28" fill="none" xmlns="http://www.w3.org/2000/svg">
<path fill-rule="evenodd" clip-rule="evenodd" d="M14 28C21.732 28 28 21.732 28 14C28 6.26801 21.732 0 14 0C6.26801 0 0 6.26801 0 14C0 21.732 6.26801 28 14 28ZM12.0295 19.642C12.5466 20.0759 13.3176 20.0084 13.7515 19.4913L21.6081 10.1282C22.042 9.61112 21.9745 8.84017 21.4574 8.40626C20.9403 7.97235 20.1693 8.0398 19.7354 8.55691L12.6645 16.9837L7.98297 13.0554C7.46587 12.6215 6.69491 12.689 6.26101 13.2061C5.8271 13.7232 5.89455 14.4941 6.41166 14.928L12.0295 19.642Z" fill="#D8A22E"/>
</svg>
