<svg width="15" height="15" viewBox="0 0 15 15" fill="none" xmlns="http://www.w3.org/2000/svg">
<path d="M0.555167 7.53686C0.549588 7.52403 0.544289 7.51174 0.539268 7.5C0.544289 7.48826 0.549588 7.47597 0.555167 7.46314C0.616079 7.32314 0.710166 7.12002 0.840169 6.87488C1.10074 6.38352 1.50246 5.72923 2.06591 5.07681C3.19083 3.77428 4.93846 2.5 7.5 2.5C10.0615 2.5 11.8092 3.77428 12.9341 5.07681C13.4975 5.72923 13.8993 6.38352 14.1598 6.87488C14.2898 7.12002 14.3839 7.32314 14.4448 7.46314C14.4504 7.47597 14.4557 7.48826 14.4607 7.5C14.4557 7.51174 14.4504 7.52403 14.4448 7.53686C14.3839 7.67686 14.2898 7.87998 14.1598 8.12512C13.8993 8.61648 13.4975 9.27077 12.9341 9.92319C11.8092 11.2257 10.0615 12.5 7.5 12.5C4.93846 12.5 3.19083 11.2257 2.06591 9.92319C1.50246 9.27077 1.10074 8.61648 0.840169 8.12512C0.710166 7.87998 0.616079 7.67686 0.555167 7.53686Z" stroke="#7E8A95"/>
<circle cx="7.5" cy="7.5" r="3" stroke="#7E8A95"/>
<path d="M3.00003 14L12 1" stroke="#7E8A95"/>
</svg>
