  <svg
    width="28px"
    height="28px"
    viewBox="0 0 28 28"
    version="1.1"
    xmlns="http://www.w3.org/2000/svg"
    xmlns:xlink="http://www.w3.org/1999/xlink"
  >
    <!-- Generator: Sketch 53.1 (72631) - https://sketchapp.com -->
    <title>identity</title>
    <desc>Created with Sketch.</desc>
    <defs>
      <rect
        id="path-1"
        x="0"
        y="0"
        width="28"
        height="28"
        rx="4" 
      />
    </defs>
    <g
      id="Page-1"
      stroke="none"
      stroke-width="1"
      fill="none"
      fill-rule="evenodd"
    >
      <g id="identity">
        <mask
          id="mask-2"
          fill="white"
        >
          <use xlink:href="#path-1" />
        </mask>
        <rect
          stroke="#999B9C"
          x="0.5"
          y="0.5"
          width="27"
          height="27"
          rx="4"
        />
        <g
          id="Group-19"
          mask="url(#mask-2)"
          stroke-linecap="round"
        >
          <g
            id="Group-18"
            transform="translate(8.000000, 5.000000)"
          >
            <g>
              <path
                id="Line"
                d="M0.739130435,34 L0.739130435,7.02173913 C0.739130435,3.14373969 3.88287013,-5.08019714e-14 7.76086957,-5.15143483e-14 L12.3191537,-5.41788836e-14 C14.2473755,-5.45330922e-14 16.102489,0.737934941 17.5038615,2.06239514 L17.5038615,2.06239514 C18.8967476,3.37883475 19.6860212,5.21079328 19.6860212,7.12733833 L19.6860212,16.2213873 C19.6860212,18.837407 17.5653182,20.95811 14.9492985,20.95811 L14.9492985,20.95811 C12.3332788,20.95811 10.2125758,18.837407 10.2125758,16.2213873 L10.2125758,12.9276406 C10.2125758,12.0738713 10.9046926,11.3817546 11.7584618,11.3817546 L11.7584618,11.3817546 C12.6122311,11.3817546 13.3043478,12.0738713 13.3043478,12.9276406 L13.3043478,15.9889078 C13.3043478,16.9555291 14.0879492,17.7391304 15.0545705,17.7391304 L15.0545705,17.7391304 C16.0211917,17.7391304 16.8047931,16.9555291 16.8047931,15.9889078 L16.8047931,12.7739504 C16.8047931,10.0794821 14.620495,7.89518403 11.9260267,7.89518403 L11.9260267,7.89518403 C9.23155841,7.89518403 7.04726029,10.0794821 7.04726029,12.7739504 L7.04726029,17.5831285 C7.04726029,21.0732259 9.8765433,23.9025089 13.3666408,23.9025089 L18.1953431,23.9025089 C19.0186219,23.9025089 19.6860212,24.5699082 19.6860212,25.393187 L19.6860212,25.393187 C19.6860212,26.2164657 19.0186219,26.883865 18.1953431,26.883865 L11.9208437,26.883865 C7.63225458,26.883865 4.15566619,23.4072767 4.15566619,19.1186875 L4.15566619,10.2240039 C4.15566619,7.45736738 6.39846823,5.21456535 9.16510475,5.21456535 C9.1998105,5.21456535 9.23451531,5.21492601 9.26921357,5.21564729 L12.8877802,5.29086652 C13.8728808,5.31134383 14.8420253,5.54367755 15.729335,5.97207451 L15.729335,5.97207451 C15.9654873,6.08608983 16.2493541,5.9870783 16.3633695,5.75092608 C16.4304274,5.61203355 16.4258461,5.4492238 16.3510839,5.31432193 L15.9888762,4.66074952 C15.3180613,3.450322 14.0431919,2.69929274 12.6593106,2.69929274 L8.4812926,2.69929274 C6.5811661,2.69929274 4.81982128,3.69440437 3.83920941,5.32194272 L3.83920941,5.32194272"
                stroke="#979797"
                fill-rule="nonzero"
              />
              <path
                id="Line-Copy"
                d="M12.1346311,34 L12.1346311,7.02173913 C12.1346311,3.14373969 15.2783708,-4.9913793e-14 19.1563702,-5.06261699e-14 L19.6860212,-4.97379915e-14"
                stroke="#979797"
                fill-rule="nonzero"
                transform="translate(15.910326, 17.000000) scale(-1, 1) translate(-15.910326, -17.000000) "
              />
            </g>
          </g>
        </g>
      </g>
    </g>
  </svg>
