<svg width="16" height="11" viewBox="0 0 16 11" fill="none" xmlns="http://www.w3.org/2000/svg">
<path d="M0.5 2C0.5 1.17157 1.17157 0.5 2 0.5H14C14.8284 0.5 15.5 1.17157 15.5 2V9C15.5 9.82843 14.8284 10.5 14 10.5H2C1.17157 10.5 0.5 9.82843 0.5 9V2Z" stroke="#7E8A95"/>
<mask id="path-2-inside-1" fill="white">
<path d="M3 3.5C3 3.22386 3.22386 3 3.5 3H5.5C5.77614 3 6 3.22386 6 3.5C6 3.77614 5.77614 4 5.5 4H3.5C3.22386 4 3 3.77614 3 3.5Z"/>
</mask>
<path d="M3.5 4H5.5V2H3.5V4ZM5.5 3H3.5V5H5.5V3ZM3.5 3C3.77614 3 4 3.22386 4 3.5H2C2 4.32843 2.67157 5 3.5 5V3ZM5 3.5C5 3.22386 5.22386 3 5.5 3V5C6.32843 5 7 4.32843 7 3.5H5ZM5.5 4C5.22386 4 5 3.77614 5 3.5H7C7 2.67157 6.32843 2 5.5 2V4ZM3.5 2C2.67157 2 2 2.67157 2 3.5H4C4 3.77614 3.77614 4 3.5 4V2Z" fill="#7E8A95" mask="url(#path-2-inside-1)"/>
<mask id="path-4-inside-2" fill="white">
<path d="M7 3.5C7 3.22386 7.22386 3 7.5 3H9.5C9.77614 3 10 3.22386 10 3.5C10 3.77614 9.77614 4 9.5 4H7.5C7.22386 4 7 3.77614 7 3.5Z"/>
</mask>
<path d="M7.5 4H9.5V2H7.5V4ZM9.5 3H7.5V5H9.5V3ZM7.5 3C7.77614 3 8 3.22386 8 3.5H6C6 4.32843 6.67157 5 7.5 5V3ZM9 3.5C9 3.22386 9.22386 3 9.5 3V5C10.3284 5 11 4.32843 11 3.5H9ZM9.5 4C9.22386 4 9 3.77614 9 3.5H11C11 2.67157 10.3284 2 9.5 2V4ZM7.5 2C6.67157 2 6 2.67157 6 3.5H8C8 3.77614 7.77614 4 7.5 4V2Z" fill="#7E8A95" mask="url(#path-4-inside-2)"/>
<mask id="path-6-inside-3" fill="white">
<path d="M6 5.5C6 5.22386 6.22386 5 6.5 5H8.5C8.77614 5 9 5.22386 9 5.5C9 5.77614 8.77614 6 8.5 6H6.5C6.22386 6 6 5.77614 6 5.5Z"/>
</mask>
<path d="M6.5 6H8.5V4H6.5V6ZM8.5 5H6.5V7H8.5V5ZM6.5 5C6.77614 5 7 5.22386 7 5.5H5C5 6.32843 5.67157 7 6.5 7V5ZM8 5.5C8 5.22386 8.22386 5 8.5 5V7C9.32843 7 10 6.32843 10 5.5H8ZM8.5 6C8.22386 6 8 5.77614 8 5.5H10C10 4.67157 9.32843 4 8.5 4V6ZM6.5 4C5.67157 4 5 4.67157 5 5.5H7C7 5.77614 6.77614 6 6.5 6V4Z" fill="#7E8A95" mask="url(#path-6-inside-3)"/>
<mask id="path-8-inside-4" fill="white">
<path d="M10 5.5C10 5.22386 10.2239 5 10.5 5H12.5C12.7761 5 13 5.22386 13 5.5C13 5.77614 12.7761 6 12.5 6H10.5C10.2239 6 10 5.77614 10 5.5Z"/>
</mask>
<path d="M10.5 6H12.5V4H10.5V6ZM12.5 5H10.5V7H12.5V5ZM10.5 5C10.7761 5 11 5.22386 11 5.5H9C9 6.32843 9.67157 7 10.5 7V5ZM12 5.5C12 5.22386 12.2239 5 12.5 5V7C13.3284 7 14 6.32843 14 5.5H12ZM12.5 6C12.2239 6 12 5.77614 12 5.5H14C14 4.67157 13.3284 4 12.5 4V6ZM10.5 4C9.67157 4 9 4.67157 9 5.5H11C11 5.77614 10.7761 6 10.5 6V4Z" fill="#7E8A95" mask="url(#path-8-inside-4)"/>
<mask id="path-10-inside-5" fill="white">
<path d="M11 3.5C11 3.22386 11.2239 3 11.5 3H12.5C12.7761 3 13 3.22386 13 3.5C13 3.77614 12.7761 4 12.5 4H11.5C11.2239 4 11 3.77614 11 3.5Z"/>
</mask>
<path d="M11.5 4H12.5V2H11.5V4ZM12.5 3H11.5V5H12.5V3ZM11.5 3C11.7761 3 12 3.22386 12 3.5H10C10 4.32843 10.6716 5 11.5 5V3ZM12 3.5C12 3.22386 12.2239 3 12.5 3V5C13.3284 5 14 4.32843 14 3.5H12ZM12.5 4C12.2239 4 12 3.77614 12 3.5H14C14 2.67157 13.3284 2 12.5 2V4ZM11.5 2C10.6716 2 10 2.67157 10 3.5H12C12 3.77614 11.7761 4 11.5 4V2Z" fill="#7E8A95" mask="url(#path-10-inside-5)"/>
<mask id="path-12-inside-6" fill="white">
<path d="M5 7.5C5 7.22386 5.22386 7 5.5 7H10.5C10.7761 7 11 7.22386 11 7.5C11 7.77614 10.7761 8 10.5 8H5.5C5.22386 8 5 7.77614 5 7.5Z"/>
</mask>
<path d="M5.5 8H10.5V6H5.5V8ZM10.5 7H5.5V9H10.5V7ZM5.5 7C5.77614 7 6 7.22386 6 7.5H4C4 8.32843 4.67157 9 5.5 9V7ZM10 7.5C10 7.22386 10.2239 7 10.5 7V9C11.3284 9 12 8.32843 12 7.5H10ZM10.5 8C10.2239 8 10 7.77614 10 7.5H12C12 6.67157 11.3284 6 10.5 6V8ZM5.5 6C4.67157 6 4 6.67157 4 7.5H6C6 7.77614 5.77614 8 5.5 8V6Z" fill="#7E8A95" mask="url(#path-12-inside-6)"/>
<mask id="path-14-inside-7" fill="white">
<path d="M3 5.5C3 5.22386 3.22386 5 3.5 5H4.5C4.77614 5 5 5.22386 5 5.5C5 5.77614 4.77614 6 4.5 6H3.5C3.22386 6 3 5.77614 3 5.5Z"/>
</mask>
<path d="M3.5 6H4.5V4H3.5V6ZM4.5 5H3.5V7H4.5V5ZM3.5 5C3.77614 5 4 5.22386 4 5.5H2C2 6.32843 2.67157 7 3.5 7V5ZM4 5.5C4 5.22386 4.22386 5 4.5 5V7C5.32843 7 6 6.32843 6 5.5H4ZM4.5 6C4.22386 6 4 5.77614 4 5.5H6C6 4.67157 5.32843 4 4.5 4V6ZM3.5 4C2.67157 4 2 4.67157 2 5.5H4C4 5.77614 3.77614 6 3.5 6V4Z" fill="#7E8A95" mask="url(#path-14-inside-7)"/>
</svg>
