<svg version="1.0" xmlns="http://www.w3.org/2000/svg"
 width="10pt" height="12pt" viewBox="0 0 840.000000 1060.000000"
 preserveAspectRatio="none">
<g transform="translate(0.000000,1060.000000) scale(0.100000,-0.100000)">
<path d="M3990 10193 c-134 -12 -241 -28 -345 -50 -1006 -210 -1805 -988
-2043 -1988 -59 -247 -64 -305 -69 -750 l-5 -410 599 3 c329 1 603 4 610 7 9
3 12 88 13 341 0 353 6 421 45 569 139 519 548 909 1089 1037 125 30 447 32
575 5 207 -45 395 -127 559 -244 108 -77 275 -247 348 -353 104 -151 184 -337
227 -525 18 -79 20 -135 24 -462 l5 -373 599 0 c329 0 602 1 607 3 4 1 7 171
6 377 -1 405 -10 512 -60 740 -66 295 -211 633 -382 890 -501 751 -1341 1199
-2232 1188 -74 0 -151 -3 -170 -5z"/>
<path d="M1560 6689 c-83 -11 -218 -52 -295 -91 -246 -124 -416 -329 -502
-603 l-28 -90 0 -2350 c0 -2274 1 -2352 19 -2420 104 -386 420 -671 801 -725
58 -8 802 -10 2695 -8 2451 3 2619 5 2679 21 354 97 613 349 713 693 l23 79 0
2350 c0 2274 -1 2352 -19 2420 -47 174 -131 321 -255 446 -126 126 -275 212
-451 260 l-85 24 -2615 1 c-1438 1 -2644 -2 -2680 -7z m2815 -1200 c392 -48
715 -329 811 -706 103 -405 -52 -804 -403 -1042 -52 -35 -62 -47 -58 -64 5
-20 315 -1816 315 -1823 0 -2 -355 -4 -790 -4 -635 0 -790 3 -790 13 0 13 306
1795 315 1833 4 17 -6 29 -50 58 -182 121 -326 324 -387 547 -20 73 -23 106
-22 249 1 149 3 174 27 253 114 372 423 637 802 687 89 11 130 11 230 -1z"/>
</g>
</svg>
