<svg width="3" height="21" viewBox="0 0 3 21" fill="none" xmlns="http://www.w3.org/2000/svg">
    <path fill-rule="evenodd" clip-rule="evenodd" d="M1.5 3C2.32843 3 3 2.32843 3 1.5C3 0.671573 2.32843 0 1.5 0C0.671573 0 0 0.671573 0 1.5C0 2.32843 0.671573 3 1.5 3ZM1.5 12C2.32843 12 3 11.3284 3 10.5C3 9.67157 2.32843 9 1.5 9C0.671573 9 0 9.67157 0 10.5C0 11.3284 0.671573 12 1.5 12ZM3 19.5C3 20.3284 2.32843 21 1.5 21C0.671573 21 0 20.3284 0 19.5C0 18.6716 0.671573 18 1.5 18C2.32843 18 3 18.6716 3 19.5Z" fill="white"/>
</svg>
