  <svg
    width="28"
    height="28"
    viewBox="0 0 28 28"
    fill="none"
    xmlns="http://www.w3.org/2000/svg"
  >
    <path
      d="M14 7L14 14H7"
      stroke="#979797"
    />
    <rect
      x="0.5"
      y="0.5"
      width="27"
      height="27"
      rx="3.5"
      stroke="#999B9C"
    />
    <mask
      id="mask0"
      mask-type="alpha"
      maskUnits="userSpaceOnUse"
      x="0"
      y="0"
      width="28"
      height="28"
    >
      <rect
        x="0.5"
        y="0.5"
        width="27"
        height="27"
        rx="3.5"
        fill="white"
        stroke="white"
      />
    </mask>
    <g mask="url(#mask0)">
      <mask
        id="path-4-inside-1"
        fill="white"
      >
        <path
          fill-rule="evenodd"
          clip-rule="evenodd"
          d="M6 6V7V27V28H7H30H31V27V7V6H30H6ZM30 7H29.9795H29.9234H29.8673H29.8112H29.7552H29.6993H29.6434H29.5875H29.5318H29.476H29.4204H29.3647H29.3092H29.2537H29.1982H29.1428H29.0875H29.0322H28.9769H28.9217H28.8666H28.8115H28.7565H28.7015H28.6465H28.5917H28.5368H28.4821H28.4273H28.3727H28.318H28.2635H28.2089H28.1545H28.1H28.0457H27.9913H27.9371H27.8828H27.8287H27.7745H27.7205H27.6664H27.6125H27.5585H27.5047H27.4508H27.397H27.3433H27.2896H27.236H27.1824H27.1289H27.0754H27.0219H26.9685H26.9152H26.8619H26.8086H26.7554H26.7022H26.6491H26.596H26.543H26.49H26.4371H26.3842H26.3313H26.2785H26.2258H26.1731H26.1204H26.0678H26.0152H25.9627H25.9102H25.8578H25.8054H25.753H25.7007H25.6484H25.5962H25.544H25.4919H25.4398H25.3877H25.3357H25.2838H25.2318H25.18H25.1281H25.0763H25.0246H24.9729H24.9212H24.8695H24.818H24.7664H24.7149H24.6634H24.612H24.5606H24.5093H24.458H24.4067H24.3555H24.3043H24.2531H24.202H24.151H24.0999H24.049H23.998H23.9471H23.8962H23.8454H23.7946H23.7438H23.6931H23.6424H23.5918H23.5412H23.4906H23.4401H23.3896H23.3391H23.2887H23.2383H23.1879H23.1376H23.0874H23.0371H22.9869H22.9367H22.8866H22.8365H22.7864H22.7364H22.6864H22.6365H22.5865H22.5367H22.4868H22.437H22.3872H22.3375H22.2877H22.238H22.1884H22.1388H22.0892H22.0396H21.9901H21.9406H21.8912H21.8418H21.7924H21.743H21.6937H21.6444H21.5952H21.5459H21.4967H21.4476H21.3984H21.3493H21.3003H21.2512H21.2022H21.1532H21.1043H21.0554H21.0065H20.9576H20.9088H20.86H20.8112H20.7625H20.7138H20.6651H20.6164H20.5678H20.5192H20.4706H20.4221H20.3736H20.3251H20.2766H20.2282H20.1798H20.1314H20.0831H20.0348H19.9865H19.9382H19.89H19.8418H19.7936H19.7454H19.6973H19.6492H19.6011H19.553H19.505H19.457H19.409H19.3611H19.3131H19.2652H19.2174H19.1695H19.1217H19.0739H19.0261H18.9783H18.9306H18.8829H18.8352H18.7875H18.7399H18.6922H18.6446H18.5971H18.5495H18.502H18.4545H18.407H18.3595H18.3121H18.2647H18.2173H18.1699H18.1225H18.0752H18.0279H17.9806H17.9333H17.8861H17.8388H17.7916H17.7444H17.6973H17.6501H17.603H17.5559H17.5088H17.4617H17.4146H17.3676H17.3206H17.2736H17.2266H17.1796H17.1327H17.0858H17.0389H16.992H16.9451H16.8982H16.8514H16.8046H16.7578H16.711H16.6642H16.6175H16.5707H16.524H16.4773H16.4306H16.3839H16.3373H16.2906H16.244H16.1974H16.1508H16.1042H16.0576H16.0111H15.9645H15.918H15.8715H15.825H15.7785H15.732H15.6856H15.6391H15.5927H15.5463H15.4999H15.4535H15.4071H15.3608H15.3144H15.2681H15.2217H15.1754H15.1291H15.0828H15.0365H14.9903H14.944H14.8978H14.8515H14.8053H14.7591H14.7129H14.6667H14.6205H14.5743H14.5282H14.482H14.4359H14.3897H14.3436H14.2975H14.2514H14.2053H14.1592H14.1131H14.067H14.021H13.9749H13.9288H13.8828H13.8368H13.7907H13.7447H13.6987H13.6527H13.6067H13.5607H13.5147H13.4688H13.4228H13.3768H13.3309H13.2849H13.239H13.193H13.1471H13.1011H13.0552H13.0093H12.9634H12.9175H12.8716H12.8257H12.7798H12.7339H12.688H12.6421H12.5962H12.5503H12.5045H12.4586H12.4127H12.3668H12.321H12.2751H12.2293H12.1834H12.1376H12.0917H12.0459H12H11.9542H11.9083H11.8625H11.8166H11.7708H11.7249H11.6791H11.6333H11.5874H11.5416H11.4958H11.4499H11.4041H11.3582H11.3124H11.2666H11.2207H11.1749H11.129H11.0832H11.0374H10.9915H10.9457H10.8998H10.854H10.8081H10.7623H10.7164H10.6705H10.6247H10.5788H10.5329H10.4871H10.4412H10.3953H10.3494H10.3036H10.2577H10.2118H10.1659H10.12H10.0741H10.0282H9.98225H9.93633H9.89041H9.84448H9.79854H9.7526H9.70666H9.66071H9.61475H9.56878H9.52282H9.47684H9.43086H9.38487H9.33888H9.29287H9.24686H9.20085H9.15482H9.10879H9.06275H9.01671H8.97065H8.92459H8.87852H8.83244H8.78635H8.74026H8.69415H8.64804H8.60192H8.55578H8.50964H8.46349H8.41733H8.37116H8.32498H8.27879H8.23259H8.18638H8.14016H8.09392H8.04768H8.00143H7.95516H7.90888H7.8626H7.8163H7.76998H7.72366H7.67733H7.63098H7.58462H7.53825H7.49186H7.44546H7.39905H7.35263H7.30619H7.25974H7.21328H7.1668H7.12031H7.0738H7.02728H7V7.00224V7.02527V7.04853V7.07203V7.09576V7.11973V7.14394V7.16837V7.19304V7.21795V7.24308V7.26844V7.29404V7.31986V7.34591V7.37218V7.39869V7.42542V7.45237V7.47955V7.50695V7.53457V7.56241V7.59047V7.61876V7.64726V7.67598V7.70492V7.73407V7.76344V7.79303V7.82283V7.85284V7.88306V7.9135V7.94415V7.975V8.00607V8.03734V8.06882V8.10051V8.13241V8.16451V8.19681V8.22932V8.26202V8.29494V8.32805V8.36136V8.39487V8.42858V8.46249V8.4966V8.5309V8.56539V8.60008V8.63497V8.67005V8.70531V8.74077V8.77643V8.81227V8.84829V8.88451V8.92092V8.95751V8.99428V9.03124V9.06839V9.10572V9.14323V9.18092V9.21879V9.25684V9.29507V9.33348V9.37207V9.41083V9.44977V9.48888V9.52817V9.56763V9.60726V9.64707V9.68704V9.72719V9.7675V9.80799V9.84864V9.88946V9.93044V9.97159V10.0129V10.0544V10.096V10.1378V10.1798V10.2219V10.2642V10.3066V10.3492V10.392V10.4349V10.478V10.5212V10.5646V10.6081V10.6518V10.6956V10.7396V10.7837V10.828V10.8724V10.917V10.9617V11.0066V11.0516V11.0967V11.142V11.1875V11.2331V11.2788V11.3247V11.3707V11.4168V11.4631V11.5095V11.556V11.6027V11.6496V11.6965V11.7436V11.7908V11.8382V11.8856V11.9332V11.981V12.0288V12.0768V12.125V12.1732V12.2216V12.27V12.3187V12.3674V12.4163V12.4652V12.5143V12.5635V12.6129V12.6623V12.7119V12.7616V12.8114V12.8613V12.9113V12.9614V13.0117V13.062V13.1125V13.1631V13.2138V13.2645V13.3154V13.3664V13.4176V13.4688V13.5201V13.5715V13.623V13.6746V13.7264V13.7782V13.8301V13.8821V13.9342V13.9864V14.0387V14.0911V14.1436V14.1962V14.2489V14.3016V14.3545V14.4074V14.4605V14.5136V14.5668V14.6201V14.6735V14.7269V14.7805V14.8341V14.8878V14.9416V14.9955V15.0494V15.1035V15.1576V15.2118V15.266V15.3204V15.3748V15.4293V15.4838V15.5385V15.5932V15.648V15.7028V15.7577V15.8127V15.8677V15.9229V15.978V16.0333V16.0886V16.144V16.1994V16.2549V16.3105V16.3661V16.4218V16.4775V16.5333V16.5891V16.645V16.701V16.757V16.8131V16.8692V16.9254V16.9816V17.0379V17.0942V17.1506V17.207V17.2635V17.32V17.3766V17.4332V17.4898V17.5465V17.6032V17.66V17.7168V17.7737V17.8306V17.8875V17.9445V18.0015V18.0585V18.1156V18.1727V18.2299V18.287V18.3442V18.4015V18.4587V18.516V18.5734V18.6307V18.6881V18.7455V18.8029V18.8604V18.9179V18.9754V19.0329V19.0904V19.148V19.2056V19.2632V19.3208V19.3784V19.4361V19.4937V19.5514V19.6091V19.6668V19.7245V19.7823V19.84V19.8978V19.9555V20.0133V20.0711V20.1288V20.1866V20.2444V20.3022V20.36V20.4178V20.4756V20.5334V20.5912V20.649V20.7068V20.7646V20.8224V20.8802V20.9379V20.9957V21.0535V21.1113V21.169V21.2267V21.2845V21.3422V21.3999V21.4576V21.5153V21.573V21.6306V21.6883V21.7459V21.8035V21.8611V21.9187V21.9762V22.0337V22.0912V22.1487V22.2062V22.2636V22.321V22.3784V22.4358V22.4931V22.5504V22.6077V22.665V22.7222V22.7794V22.8365V22.8936V22.9507V23.0078V23.0648V23.1218V23.1787V23.2356V23.2925V23.3493V23.4061V23.4629V23.5196V23.5762V23.6329V23.6894V23.746V23.8025V23.8589V23.9153V23.9716V24.0279V24.0842V24.1404V24.1965V24.2526V24.3086V24.3646V24.4205V24.4764V24.5322V24.588V24.6437V24.6993V24.7549V24.8104V24.8659V24.9213V24.9766V25.0319V25.0871V25.1422V25.1973V25.2523V25.3072V25.3621V25.4169V25.4716V25.5263V25.5809V25.6354V25.6898V25.7442V25.7985V25.8527V25.9068V25.9609V26.0149V26.0688V26.1226V26.1764V26.23V26.2836V26.3371V26.3905V26.4438V26.4971V26.5502V26.6033V26.6563V26.7091V26.7619V26.8146V26.8673V26.9198V26.9722V27H30V7Z"
        />
      </mask>
      <path
        d="M6 6V5H5V6H6ZM6 28H5V29H6V28ZM31 28V29H32V28H31ZM31 6H32V5H31V6ZM30 7H31V6H30V7ZM7 7V6H6V7H7ZM7 27H6V28H7V27ZM30 27V28H31V27H30ZM7 7V6H5V7H7ZM7 27V7H5V27H7ZM7 28V27H5V28H7ZM7 27H6V29H7V27ZM30 27H7V29H30V27ZM31 27H30V29H31V27ZM30 27V28H32V27H30ZM30 7V27H32V7H30ZM30 6V7H32V6H30ZM30 7H31V5H30V7ZM6 7H30V5H6V7ZM29.9795 8H30V6H29.9795V8ZM29.9234 8H29.9795V6H29.9234V8ZM29.8673 8H29.9234V6H29.8673V8ZM29.8112 8H29.8673V6H29.8112V8ZM29.7552 8H29.8112V6H29.7552V8ZM29.6993 8H29.7552V6H29.6993V8ZM29.6434 8H29.6993V6H29.6434V8ZM29.5875 8H29.6434V6H29.5875V8ZM29.5318 8H29.5875V6H29.5318V8ZM29.476 8H29.5318V6H29.476V8ZM29.4204 8H29.476V6H29.4204V8ZM29.3647 8H29.4204V6H29.3647V8ZM29.3092 8H29.3647V6H29.3092V8ZM29.2537 8H29.3092V6H29.2537V8ZM29.1982 8H29.2537V6H29.1982V8ZM29.1428 8H29.1982V6H29.1428V8ZM29.0875 8H29.1428V6H29.0875V8ZM29.0322 8H29.0875V6H29.0322V8ZM28.9769 8H29.0322V6H28.9769V8ZM28.9217 8H28.9769V6H28.9217V8ZM28.8666 8H28.9217V6H28.8666V8ZM28.8115 8H28.8666V6H28.8115V8ZM28.7565 8H28.8115V6H28.7565V8ZM28.7015 8H28.7565V6H28.7015V8ZM28.6465 8H28.7015V6H28.6465V8ZM28.5917 8H28.6465V6H28.5917V8ZM28.5368 8H28.5917V6H28.5368V8ZM28.4821 8H28.5368V6H28.4821V8ZM28.4273 8H28.4821V6H28.4273V8ZM28.3727 8H28.4273V6H28.3727V8ZM28.318 8H28.3727V6H28.318V8ZM28.2635 8H28.318V6H28.2635V8ZM28.2089 8H28.2635V6H28.2089V8ZM28.1545 8H28.2089V6H28.1545V8ZM28.1 8H28.1545V6H28.1V8ZM28.0457 8H28.1V6H28.0457V8ZM27.9913 8H28.0457V6H27.9913V8ZM27.9371 8H27.9913V6H27.9371V8ZM27.8828 8H27.9371V6H27.8828V8ZM27.8287 8H27.8828V6H27.8287V8ZM27.7745 8H27.8287V6H27.7745V8ZM27.7205 8H27.7745V6H27.7205V8ZM27.6664 8H27.7205V6H27.6664V8ZM27.6125 8H27.6664V6H27.6125V8ZM27.5585 8H27.6125V6H27.5585V8ZM27.5047 8H27.5585V6H27.5047V8ZM27.4508 8H27.5047V6H27.4508V8ZM27.397 8H27.4508V6H27.397V8ZM27.3433 8H27.397V6H27.3433V8ZM27.2896 8H27.3433V6H27.2896V8ZM27.236 8H27.2896V6H27.236V8ZM27.1824 8H27.236V6H27.1824V8ZM27.1289 8H27.1824V6H27.1289V8ZM27.0754 8H27.1289V6H27.0754V8ZM27.0219 8H27.0754V6H27.0219V8ZM26.9685 8H27.0219V6H26.9685V8ZM26.9152 8H26.9685V6H26.9152V8ZM26.8619 8H26.9152V6H26.8619V8ZM26.8086 8H26.8619V6H26.8086V8ZM26.7554 8H26.8086V6H26.7554V8ZM26.7022 8H26.7554V6H26.7022V8ZM26.6491 8H26.7022V6H26.6491V8ZM26.596 8H26.6491V6H26.596V8ZM26.543 8H26.596V6H26.543V8ZM26.49 8H26.543V6H26.49V8ZM26.4371 8H26.49V6H26.4371V8ZM26.3842 8H26.4371V6H26.3842V8ZM26.3313 8H26.3842V6H26.3313V8ZM26.2785 8H26.3313V6H26.2785V8ZM26.2258 8H26.2785V6H26.2258V8ZM26.1731 8H26.2258V6H26.1731V8ZM26.1204 8H26.1731V6H26.1204V8ZM26.0678 8H26.1204V6H26.0678V8ZM26.0152 8H26.0678V6H26.0152V8ZM25.9627 8H26.0152V6H25.9627V8ZM25.9102 8H25.9627V6H25.9102V8ZM25.8578 8H25.9102V6H25.8578V8ZM25.8054 8H25.8578V6H25.8054V8ZM25.753 8H25.8054V6H25.753V8ZM25.7007 8H25.753V6H25.7007V8ZM25.6484 8H25.7007V6H25.6484V8ZM25.5962 8H25.6484V6H25.5962V8ZM25.544 8H25.5962V6H25.544V8ZM25.4919 8H25.544V6H25.4919V8ZM25.4398 8H25.4919V6H25.4398V8ZM25.3877 8H25.4398V6H25.3877V8ZM25.3357 8H25.3877V6H25.3357V8ZM25.2838 8H25.3357V6H25.2838V8ZM25.2318 8H25.2838V6H25.2318V8ZM25.18 8H25.2318V6H25.18V8ZM25.1281 8H25.18V6H25.1281V8ZM25.0763 8H25.1281V6H25.0763V8ZM25.0246 8H25.0763V6H25.0246V8ZM24.9729 8H25.0246V6H24.9729V8ZM24.9212 8H24.9729V6H24.9212V8ZM24.8695 8H24.9212V6H24.8695V8ZM24.818 8H24.8695V6H24.818V8ZM24.7664 8H24.818V6H24.7664V8ZM24.7149 8H24.7664V6H24.7149V8ZM24.6634 8H24.7149V6H24.6634V8ZM24.612 8H24.6634V6H24.612V8ZM24.5606 8H24.612V6H24.5606V8ZM24.5093 8H24.5606V6H24.5093V8ZM24.458 8H24.5093V6H24.458V8ZM24.4067 8H24.458V6H24.4067V8ZM24.3555 8H24.4067V6H24.3555V8ZM24.3043 8H24.3555V6H24.3043V8ZM24.2531 8H24.3043V6H24.2531V8ZM24.202 8H24.2531V6H24.202V8ZM24.151 8H24.202V6H24.151V8ZM24.0999 8H24.151V6H24.0999V8ZM24.049 8H24.0999V6H24.049V8ZM23.998 8H24.049V6H23.998V8ZM23.9471 8H23.998V6H23.9471V8ZM23.8962 8H23.9471V6H23.8962V8ZM23.8454 8H23.8962V6H23.8454V8ZM23.7946 8H23.8454V6H23.7946V8ZM23.7438 8H23.7946V6H23.7438V8ZM23.6931 8H23.7438V6H23.6931V8ZM23.6424 8H23.6931V6H23.6424V8ZM23.5918 8H23.6424V6H23.5918V8ZM23.5412 8H23.5918V6H23.5412V8ZM23.4906 8H23.5412V6H23.4906V8ZM23.4401 8H23.4906V6H23.4401V8ZM23.3896 8H23.4401V6H23.3896V8ZM23.3391 8H23.3896V6H23.3391V8ZM23.2887 8H23.3391V6H23.2887V8ZM23.2383 8H23.2887V6H23.2383V8ZM23.1879 8H23.2383V6H23.1879V8ZM23.1376 8H23.1879V6H23.1376V8ZM23.0874 8H23.1376V6H23.0874V8ZM23.0371 8H23.0874V6H23.0371V8ZM22.9869 8H23.0371V6H22.9869V8ZM22.9367 8H22.9869V6H22.9367V8ZM22.8866 8H22.9367V6H22.8866V8ZM22.8365 8H22.8866V6H22.8365V8ZM22.7864 8H22.8365V6H22.7864V8ZM22.7364 8H22.7864V6H22.7364V8ZM22.6864 8H22.7364V6H22.6864V8ZM22.6365 8H22.6864V6H22.6365V8ZM22.5865 8H22.6365V6H22.5865V8ZM22.5367 8H22.5865V6H22.5367V8ZM22.4868 8H22.5367V6H22.4868V8ZM22.437 8H22.4868V6H22.437V8ZM22.3872 8H22.437V6H22.3872V8ZM22.3375 8H22.3872V6H22.3375V8ZM22.2877 8H22.3375V6H22.2877V8ZM22.238 8H22.2877V6H22.238V8ZM22.1884 8H22.238V6H22.1884V8ZM22.1388 8H22.1884V6H22.1388V8ZM22.0892 8H22.1388V6H22.0892V8ZM22.0396 8H22.0892V6H22.0396V8ZM21.9901 8H22.0396V6H21.9901V8ZM21.9406 8H21.9901V6H21.9406V8ZM21.8912 8H21.9406V6H21.8912V8ZM21.8418 8H21.8912V6H21.8418V8ZM21.7924 8H21.8418V6H21.7924V8ZM21.743 8H21.7924V6H21.743V8ZM21.6937 8H21.743V6H21.6937V8ZM21.6444 8H21.6937V6H21.6444V8ZM21.5952 8H21.6444V6H21.5952V8ZM21.5459 8H21.5952V6H21.5459V8ZM21.4967 8H21.5459V6H21.4967V8ZM21.4476 8H21.4967V6H21.4476V8ZM21.3984 8H21.4476V6H21.3984V8ZM21.3493 8H21.3984V6H21.3493V8ZM21.3003 8H21.3493V6H21.3003V8ZM21.2512 8H21.3003V6H21.2512V8ZM21.2022 8H21.2512V6H21.2022V8ZM21.1532 8H21.2022V6H21.1532V8ZM21.1043 8H21.1532V6H21.1043V8ZM21.0554 8H21.1043V6H21.0554V8ZM21.0065 8H21.0554V6H21.0065V8ZM20.9576 8H21.0065V6H20.9576V8ZM20.9088 8H20.9576V6H20.9088V8ZM20.86 8H20.9088V6H20.86V8ZM20.8112 8H20.86V6H20.8112V8ZM20.7625 8H20.8112V6H20.7625V8ZM20.7138 8H20.7625V6H20.7138V8ZM20.6651 8H20.7138V6H20.6651V8ZM20.6164 8H20.6651V6H20.6164V8ZM20.5678 8H20.6164V6H20.5678V8ZM20.5192 8H20.5678V6H20.5192V8ZM20.4706 8H20.5192V6H20.4706V8ZM20.4221 8H20.4706V6H20.4221V8ZM20.3736 8H20.4221V6H20.3736V8ZM20.3251 8H20.3736V6H20.3251V8ZM20.2766 8H20.3251V6H20.2766V8ZM20.2282 8H20.2766V6H20.2282V8ZM20.1798 8H20.2282V6H20.1798V8ZM20.1314 8H20.1798V6H20.1314V8ZM20.0831 8H20.1314V6H20.0831V8ZM20.0348 8H20.0831V6H20.0348V8ZM19.9865 8H20.0348V6H19.9865V8ZM19.9382 8H19.9865V6H19.9382V8ZM19.89 8H19.9382V6H19.89V8ZM19.8418 8H19.89V6H19.8418V8ZM19.7936 8H19.8418V6H19.7936V8ZM19.7454 8H19.7936V6H19.7454V8ZM19.6973 8H19.7454V6H19.6973V8ZM19.6492 8H19.6973V6H19.6492V8ZM19.6011 8H19.6492V6H19.6011V8ZM19.553 8H19.6011V6H19.553V8ZM19.505 8H19.553V6H19.505V8ZM19.457 8H19.505V6H19.457V8ZM19.409 8H19.457V6H19.409V8ZM19.3611 8H19.409V6H19.3611V8ZM19.3131 8H19.3611V6H19.3131V8ZM19.2652 8H19.3131V6H19.2652V8ZM19.2174 8H19.2652V6H19.2174V8ZM19.1695 8H19.2174V6H19.1695V8ZM19.1217 8H19.1695V6H19.1217V8ZM19.0739 8H19.1217V6H19.0739V8ZM19.0261 8H19.0739V6H19.0261V8ZM18.9783 8H19.0261V6H18.9783V8ZM18.9306 8H18.9783V6H18.9306V8ZM18.8829 8H18.9306V6H18.8829V8ZM18.8352 8H18.8829V6H18.8352V8ZM18.7875 8H18.8352V6H18.7875V8ZM18.7399 8H18.7875V6H18.7399V8ZM18.6922 8H18.7399V6H18.6922V8ZM18.6446 8H18.6922V6H18.6446V8ZM18.5971 8H18.6446V6H18.5971V8ZM18.5495 8H18.5971V6H18.5495V8ZM18.502 8H18.5495V6H18.502V8ZM18.4545 8H18.502V6H18.4545V8ZM18.407 8H18.4545V6H18.407V8ZM18.3595 8H18.407V6H18.3595V8ZM18.3121 8H18.3595V6H18.3121V8ZM18.2647 8H18.3121V6H18.2647V8ZM18.2173 8H18.2647V6H18.2173V8ZM18.1699 8H18.2173V6H18.1699V8ZM18.1225 8H18.1699V6H18.1225V8ZM18.0752 8H18.1225V6H18.0752V8ZM18.0279 8H18.0752V6H18.0279V8ZM17.9806 8H18.0279V6H17.9806V8ZM17.9333 8H17.9806V6H17.9333V8ZM17.8861 8H17.9333V6H17.8861V8ZM17.8388 8H17.8861V6H17.8388V8ZM17.7916 8H17.8388V6H17.7916V8ZM17.7444 8H17.7916V6H17.7444V8ZM17.6973 8H17.7444V6H17.6973V8ZM17.6501 8H17.6973V6H17.6501V8ZM17.603 8H17.6501V6H17.603V8ZM17.5559 8H17.603V6H17.5559V8ZM17.5088 8H17.5559V6H17.5088V8ZM17.4617 8H17.5088V6H17.4617V8ZM17.4146 8H17.4617V6H17.4146V8ZM17.3676 8H17.4146V6H17.3676V8ZM17.3206 8H17.3676V6H17.3206V8ZM17.2736 8H17.3206V6H17.2736V8ZM17.2266 8H17.2736V6H17.2266V8ZM17.1796 8H17.2266V6H17.1796V8ZM17.1327 8H17.1796V6H17.1327V8ZM17.0858 8H17.1327V6H17.0858V8ZM17.0389 8H17.0858V6H17.0389V8ZM16.992 8H17.0389V6H16.992V8ZM16.9451 8H16.992V6H16.9451V8ZM16.8982 8H16.9451V6H16.8982V8ZM16.8514 8H16.8982V6H16.8514V8ZM16.8046 8H16.8514V6H16.8046V8ZM16.7578 8H16.8046V6H16.7578V8ZM16.711 8H16.7578V6H16.711V8ZM16.6642 8H16.711V6H16.6642V8ZM16.6175 8H16.6642V6H16.6175V8ZM16.5707 8H16.6175V6H16.5707V8ZM16.524 8H16.5707V6H16.524V8ZM16.4773 8H16.524V6H16.4773V8ZM16.4306 8H16.4773V6H16.4306V8ZM16.3839 8H16.4306V6H16.3839V8ZM16.3373 8H16.3839V6H16.3373V8ZM16.2906 8H16.3373V6H16.2906V8ZM16.244 8H16.2906V6H16.244V8ZM16.1974 8H16.244V6H16.1974V8ZM16.1508 8H16.1974V6H16.1508V8ZM16.1042 8H16.1508V6H16.1042V8ZM16.0576 8H16.1042V6H16.0576V8ZM16.0111 8H16.0576V6H16.0111V8ZM15.9645 8H16.0111V6H15.9645V8ZM15.918 8H15.9645V6H15.918V8ZM15.8715 8H15.918V6H15.8715V8ZM15.825 8H15.8715V6H15.825V8ZM15.7785 8H15.825V6H15.7785V8ZM15.732 8H15.7785V6H15.732V8ZM15.6856 8H15.732V6H15.6856V8ZM15.6391 8H15.6856V6H15.6391V8ZM15.5927 8H15.6391V6H15.5927V8ZM15.5463 8H15.5927V6H15.5463V8ZM15.4999 8H15.5463V6H15.4999V8ZM15.4535 8H15.4999V6H15.4535V8ZM15.4071 8H15.4535V6H15.4071V8ZM15.3608 8H15.4071V6H15.3608V8ZM15.3144 8H15.3608V6H15.3144V8ZM15.2681 8H15.3144V6H15.2681V8ZM15.2217 8H15.2681V6H15.2217V8ZM15.1754 8H15.2217V6H15.1754V8ZM15.1291 8H15.1754V6H15.1291V8ZM15.0828 8H15.1291V6H15.0828V8ZM15.0365 8H15.0828V6H15.0365V8ZM14.9903 8H15.0365V6H14.9903V8ZM14.944 8H14.9903V6H14.944V8ZM14.8978 8H14.944V6H14.8978V8ZM14.8515 8H14.8978V6H14.8515V8ZM14.8053 8H14.8515V6H14.8053V8ZM14.7591 8H14.8053V6H14.7591V8ZM14.7129 8H14.7591V6H14.7129V8ZM14.6667 8H14.7129V6H14.6667V8ZM14.6205 8H14.6667V6H14.6205V8ZM14.5743 8H14.6205V6H14.5743V8ZM14.5282 8H14.5743V6H14.5282V8ZM14.482 8H14.5282V6H14.482V8ZM14.4359 8H14.482V6H14.4359V8ZM14.3897 8H14.4359V6H14.3897V8ZM14.3436 8H14.3897V6H14.3436V8ZM14.2975 8H14.3436V6H14.2975V8ZM14.2514 8H14.2975V6H14.2514V8ZM14.2053 8H14.2514V6H14.2053V8ZM14.1592 8H14.2053V6H14.1592V8ZM14.1131 8H14.1592V6H14.1131V8ZM14.067 8H14.1131V6H14.067V8ZM14.021 8H14.067V6H14.021V8ZM13.9749 8H14.021V6H13.9749V8ZM13.9288 8H13.9749V6H13.9288V8ZM13.8828 8H13.9288V6H13.8828V8ZM13.8368 8H13.8828V6H13.8368V8ZM13.7907 8H13.8368V6H13.7907V8ZM13.7447 8H13.7907V6H13.7447V8ZM13.6987 8H13.7447V6H13.6987V8ZM13.6527 8H13.6987V6H13.6527V8ZM13.6067 8H13.6527V6H13.6067V8ZM13.5607 8H13.6067V6H13.5607V8ZM13.5147 8H13.5607V6H13.5147V8ZM13.4688 8H13.5147V6H13.4688V8ZM13.4228 8H13.4688V6H13.4228V8ZM13.3768 8H13.4228V6H13.3768V8ZM13.3309 8H13.3768V6H13.3309V8ZM13.2849 8H13.3309V6H13.2849V8ZM13.239 8H13.2849V6H13.239V8ZM13.193 8H13.239V6H13.193V8ZM13.1471 8H13.193V6H13.1471V8ZM13.1011 8H13.1471V6H13.1011V8ZM13.0552 8H13.1011V6H13.0552V8ZM13.0093 8H13.0552V6H13.0093V8ZM12.9634 8H13.0093V6H12.9634V8ZM12.9175 8H12.9634V6H12.9175V8ZM12.8716 8H12.9175V6H12.8716V8ZM12.8257 8H12.8716V6H12.8257V8ZM12.7798 8H12.8257V6H12.7798V8ZM12.7339 8H12.7798V6H12.7339V8ZM12.688 8H12.7339V6H12.688V8ZM12.6421 8H12.688V6H12.6421V8ZM12.5962 8H12.6421V6H12.5962V8ZM12.5503 8H12.5962V6H12.5503V8ZM12.5045 8H12.5503V6H12.5045V8ZM12.4586 8H12.5045V6H12.4586V8ZM12.4127 8H12.4586V6H12.4127V8ZM12.3668 8H12.4127V6H12.3668V8ZM12.321 8H12.3668V6H12.321V8ZM12.2751 8H12.321V6H12.2751V8ZM12.2293 8H12.2751V6H12.2293V8ZM12.1834 8H12.2293V6H12.1834V8ZM12.1376 8H12.1834V6H12.1376V8ZM12.0917 8H12.1376V6H12.0917V8ZM12.0459 8H12.0917V6H12.0459V8ZM12 8H12.0459V6H12V8ZM11.9542 8H12V6H11.9542V8ZM11.9083 8H11.9542V6H11.9083V8ZM11.8625 8H11.9083V6H11.8625V8ZM11.8166 8H11.8625V6H11.8166V8ZM11.7708 8H11.8166V6H11.7708V8ZM11.7249 8H11.7708V6H11.7249V8ZM11.6791 8H11.7249V6H11.6791V8ZM11.6333 8H11.6791V6H11.6333V8ZM11.5874 8H11.6333V6H11.5874V8ZM11.5416 8H11.5874V6H11.5416V8ZM11.4958 8H11.5416V6H11.4958V8ZM11.4499 8H11.4958V6H11.4499V8ZM11.4041 8H11.4499V6H11.4041V8ZM11.3582 8H11.4041V6H11.3582V8ZM11.3124 8H11.3582V6H11.3124V8ZM11.2666 8H11.3124V6H11.2666V8ZM11.2207 8H11.2666V6H11.2207V8ZM11.1749 8H11.2207V6H11.1749V8ZM11.129 8H11.1749V6H11.129V8ZM11.0832 8H11.129V6H11.0832V8ZM11.0374 8H11.0832V6H11.0374V8ZM10.9915 8H11.0374V6H10.9915V8ZM10.9457 8H10.9915V6H10.9457V8ZM10.8998 8H10.9457V6H10.8998V8ZM10.854 8H10.8998V6H10.854V8ZM10.8081 8H10.854V6H10.8081V8ZM10.7623 8H10.8081V6H10.7623V8ZM10.7164 8H10.7623V6H10.7164V8ZM10.6705 8H10.7164V6H10.6705V8ZM10.6247 8H10.6705V6H10.6247V8ZM10.5788 8H10.6247V6H10.5788V8ZM10.5329 8H10.5788V6H10.5329V8ZM10.4871 8H10.5329V6H10.4871V8ZM10.4412 8H10.4871V6H10.4412V8ZM10.3953 8H10.4412V6H10.3953V8ZM10.3494 8H10.3953V6H10.3494V8ZM10.3036 8H10.3494V6H10.3036V8ZM10.2577 8H10.3036V6H10.2577V8ZM10.2118 8H10.2577V6H10.2118V8ZM10.1659 8H10.2118V6H10.1659V8ZM10.12 8H10.1659V6H10.12V8ZM10.0741 8H10.12V6H10.0741V8ZM10.0282 8H10.0741V6H10.0282V8ZM9.98225 8H10.0282V6H9.98225V8ZM9.93633 8H9.98225V6H9.93633V8ZM9.89041 8H9.93633V6H9.89041V8ZM9.84448 8H9.89041V6H9.84448V8ZM9.79854 8H9.84448V6H9.79854V8ZM9.7526 8H9.79854V6H9.7526V8ZM9.70666 8H9.7526V6H9.70666V8ZM9.66071 8H9.70666V6H9.66071V8ZM9.61475 8H9.66071V6H9.61475V8ZM9.56878 8H9.61475V6H9.56878V8ZM9.52282 8H9.56878V6H9.52282V8ZM9.47684 8H9.52282V6H9.47684V8ZM9.43086 8H9.47684V6H9.43086V8ZM9.38487 8H9.43086V6H9.38487V8ZM9.33888 8H9.38487V6H9.33888V8ZM9.29287 8H9.33888V6H9.29287V8ZM9.24686 8H9.29287V6H9.24686V8ZM9.20085 8H9.24686V6H9.20085V8ZM9.15482 8H9.20085V6H9.15482V8ZM9.10879 8H9.15482V6H9.10879V8ZM9.06275 8H9.10879V6H9.06275V8ZM9.01671 8H9.06275V6H9.01671V8ZM8.97065 8H9.01671V6H8.97065V8ZM8.92459 8H8.97065V6H8.92459V8ZM8.87852 8H8.92459V6H8.87852V8ZM8.83244 8H8.87852V6H8.83244V8ZM8.78635 8H8.83244V6H8.78635V8ZM8.74026 8H8.78635V6H8.74026V8ZM8.69415 8H8.74026V6H8.69415V8ZM8.64804 8H8.69415V6H8.64804V8ZM8.60192 8H8.64804V6H8.60192V8ZM8.55578 8H8.60192V6H8.55578V8ZM8.50964 8H8.55578V6H8.50964V8ZM8.46349 8H8.50964V6H8.46349V8ZM8.41733 8H8.46349V6H8.41733V8ZM8.37116 8H8.41733V6H8.37116V8ZM8.32498 8H8.37116V6H8.32498V8ZM8.27879 8H8.32498V6H8.27879V8ZM8.23259 8H8.27879V6H8.23259V8ZM8.18638 8H8.23259V6H8.18638V8ZM8.14016 8H8.18638V6H8.14016V8ZM8.09392 8H8.14016V6H8.09392V8ZM8.04768 8H8.09392V6H8.04768V8ZM8.00143 8H8.04768V6H8.00143V8ZM7.95516 8H8.00143V6H7.95516V8ZM7.90888 8H7.95516V6H7.90888V8ZM7.8626 8H7.90888V6H7.8626V8ZM7.8163 8H7.8626V6H7.8163V8ZM7.76998 8H7.8163V6H7.76998V8ZM7.72366 8H7.76998V6H7.72366V8ZM7.67733 8H7.72366V6H7.67733V8ZM7.63098 8H7.67733V6H7.63098V8ZM7.58462 8H7.63098V6H7.58462V8ZM7.53825 8H7.58462V6H7.53825V8ZM7.49186 8H7.53825V6H7.49186V8ZM7.44546 8H7.49186V6H7.44546V8ZM7.39905 8H7.44546V6H7.39905V8ZM7.35263 8H7.39905V6H7.35263V8ZM7.30619 8H7.35263V6H7.30619V8ZM7.25974 8H7.30619V6H7.25974V8ZM7.21328 8H7.25974V6H7.21328V8ZM7.1668 8H7.21328V6H7.1668V8ZM7.12031 8H7.1668V6H7.12031V8ZM7.0738 8H7.12031V6H7.0738V8ZM7.02728 8H7.0738V6H7.02728V8ZM7 8H7.02728V6H7V8ZM8 7.00224V7H6V7.00224H8ZM8 7.02527V7.00224H6V7.02527H8ZM8 7.04853V7.02527H6V7.04853H8ZM8 7.07203V7.04853H6V7.07203H8ZM8 7.09576V7.07203H6V7.09576H8ZM8 7.11973V7.09576H6V7.11973H8ZM8 7.14394V7.11973H6V7.14394H8ZM8 7.16837V7.14394H6V7.16837H8ZM8 7.19304V7.16837H6V7.19304H8ZM8 7.21795V7.19304H6V7.21795H8ZM8 7.24308V7.21795H6V7.24308H8ZM8 7.26844V7.24308H6V7.26844H8ZM8 7.29404V7.26844H6V7.29404H8ZM8 7.31986V7.29404H6V7.31986H8ZM8 7.34591V7.31986H6V7.34591H8ZM8 7.37218V7.34591H6V7.37218H8ZM8 7.39869V7.37218H6V7.39869H8ZM8 7.42542V7.39869H6V7.42542H8ZM8 7.45237V7.42542H6V7.45237H8ZM8 7.47955V7.45237H6V7.47955H8ZM8 7.50695V7.47955H6V7.50695H8ZM8 7.53457V7.50695H6V7.53457H8ZM8 7.56241V7.53457H6V7.56241H8ZM8 7.59047V7.56241H6V7.59047H8ZM8 7.61876V7.59047H6V7.61876H8ZM8 7.64726V7.61876H6V7.64726H8ZM8 7.67598V7.64726H6V7.67598H8ZM8 7.70492V7.67598H6V7.70492H8ZM8 7.73407V7.70492H6V7.73407H8ZM8 7.76344V7.73407H6V7.76344H8ZM8 7.79303V7.76344H6V7.79303H8ZM8 7.82283V7.79303H6V7.82283H8ZM8 7.85284V7.82283H6V7.85284H8ZM8 7.88306V7.85284H6V7.88306H8ZM8 7.9135V7.88306H6V7.9135H8ZM8 7.94415V7.9135H6V7.94415H8ZM8 7.975V7.94415H6V7.975H8ZM8 8.00607V7.975H6V8.00607H8ZM8 8.03734V8.00607H6V8.03734H8ZM8 8.06882V8.03734H6V8.06882H8ZM8 8.10051V8.06882H6V8.10051H8ZM8 8.13241V8.10051H6V8.13241H8ZM8 8.16451V8.13241H6V8.16451H8ZM8 8.19681V8.16451H6V8.19681H8ZM8 8.22932V8.19681H6V8.22932H8ZM8 8.26202V8.22932H6V8.26202H8ZM8 8.29494V8.26202H6V8.29494H8ZM8 8.32805V8.29494H6V8.32805H8ZM8 8.36136V8.32805H6V8.36136H8ZM8 8.39487V8.36136H6V8.39487H8ZM8 8.42858V8.39487H6V8.42858H8ZM8 8.46249V8.42858H6V8.46249H8ZM8 8.4966V8.46249H6V8.4966H8ZM8 8.5309V8.4966H6V8.5309H8ZM8 8.56539V8.5309H6V8.56539H8ZM8 8.60008V8.56539H6V8.60008H8ZM8 8.63497V8.60008H6V8.63497H8ZM8 8.67005V8.63497H6V8.67005H8ZM8 8.70531V8.67005H6V8.70531H8ZM8 8.74077V8.70531H6V8.74077H8ZM8 8.77643V8.74077H6V8.77643H8ZM8 8.81227V8.77643H6V8.81227H8ZM8 8.84829V8.81227H6V8.84829H8ZM8 8.88451V8.84829H6V8.88451H8ZM8 8.92092V8.88451H6V8.92092H8ZM8 8.95751V8.92092H6V8.95751H8ZM8 8.99428V8.95751H6V8.99428H8ZM8 9.03124V8.99428H6V9.03124H8ZM8 9.06839V9.03124H6V9.06839H8ZM8 9.10572V9.06839H6V9.10572H8ZM8 9.14323V9.10572H6V9.14323H8ZM8 9.18092V9.14323H6V9.18092H8ZM8 9.21879V9.18092H6V9.21879H8ZM8 9.25684V9.21879H6V9.25684H8ZM8 9.29507V9.25684H6V9.29507H8ZM8 9.33348V9.29507H6V9.33348H8ZM8 9.37207V9.33348H6V9.37207H8ZM8 9.41083V9.37207H6V9.41083H8ZM8 9.44977V9.41083H6V9.44977H8ZM8 9.48888V9.44977H6V9.48888H8ZM8 9.52817V9.48888H6V9.52817H8ZM8 9.56763V9.52817H6V9.56763H8ZM8 9.60726V9.56763H6V9.60726H8ZM8 9.64707V9.60726H6V9.64707H8ZM8 9.68704V9.64707H6V9.68704H8ZM8 9.72719V9.68704H6V9.72719H8ZM8 9.7675V9.72719H6V9.7675H8ZM8 9.80799V9.7675H6V9.80799H8ZM8 9.84864V9.80799H6V9.84864H8ZM8 9.88946V9.84864H6V9.88946H8ZM8 9.93044V9.88946H6V9.93044H8ZM8 9.97159V9.93044H6V9.97159H8ZM8 10.0129V9.97159H6V10.0129H8ZM8 10.0544V10.0129H6V10.0544H8ZM8 10.096V10.0544H6V10.096H8ZM8 10.1378V10.096H6V10.1378H8ZM8 10.1798V10.1378H6V10.1798H8ZM8 10.2219V10.1798H6V10.2219H8ZM8 10.2642V10.2219H6V10.2642H8ZM8 10.3066V10.2642H6V10.3066H8ZM8 10.3492V10.3066H6V10.3492H8ZM8 10.392V10.3492H6V10.392H8ZM8 10.4349V10.392H6V10.4349H8ZM8 10.478V10.4349H6V10.478H8ZM8 10.5212V10.478H6V10.5212H8ZM8 10.5646V10.5212H6V10.5646H8ZM8 10.6081V10.5646H6V10.6081H8ZM8 10.6518V10.6081H6V10.6518H8ZM8 10.6956V10.6518H6V10.6956H8ZM8 10.7396V10.6956H6V10.7396H8ZM8 10.7837V10.7396H6V10.7837H8ZM8 10.828V10.7837H6V10.828H8ZM8 10.8724V10.828H6V10.8724H8ZM8 10.917V10.8724H6V10.917H8ZM8 10.9617V10.917H6V10.9617H8ZM8 11.0066V10.9617H6V11.0066H8ZM8 11.0516V11.0066H6V11.0516H8ZM8 11.0967V11.0516H6V11.0967H8ZM8 11.142V11.0967H6V11.142H8ZM8 11.1875V11.142H6V11.1875H8ZM8 11.2331V11.1875H6V11.2331H8ZM8 11.2788V11.2331H6V11.2788H8ZM8 11.3247V11.2788H6V11.3247H8ZM8 11.3707V11.3247H6V11.3707H8ZM8 11.4168V11.3707H6V11.4168H8ZM8 11.4631V11.4168H6V11.4631H8ZM8 11.5095V11.4631H6V11.5095H8ZM8 11.556V11.5095H6V11.556H8ZM8 11.6027V11.556H6V11.6027H8ZM8 11.6496V11.6027H6V11.6496H8ZM8 11.6965V11.6496H6V11.6965H8ZM8 11.7436V11.6965H6V11.7436H8ZM8 11.7908V11.7436H6V11.7908H8ZM8 11.8382V11.7908H6V11.8382H8ZM8 11.8856V11.8382H6V11.8856H8ZM8 11.9332V11.8856H6V11.9332H8ZM8 11.981V11.9332H6V11.981H8ZM8 12.0288V11.981H6V12.0288H8ZM8 12.0768V12.0288H6V12.0768H8ZM8 12.125V12.0768H6V12.125H8ZM8 12.1732V12.125H6V12.1732H8ZM8 12.2216V12.1732H6V12.2216H8ZM8 12.27V12.2216H6V12.27H8ZM8 12.3187V12.27H6V12.3187H8ZM8 12.3674V12.3187H6V12.3674H8ZM8 12.4163V12.3674H6V12.4163H8ZM8 12.4652V12.4163H6V12.4652H8ZM8 12.5143V12.4652H6V12.5143H8ZM8 12.5635V12.5143H6V12.5635H8ZM8 12.6129V12.5635H6V12.6129H8ZM8 12.6623V12.6129H6V12.6623H8ZM8 12.7119V12.6623H6V12.7119H8ZM8 12.7616V12.7119H6V12.7616H8ZM8 12.8114V12.7616H6V12.8114H8ZM8 12.8613V12.8114H6V12.8613H8ZM8 12.9113V12.8613H6V12.9113H8ZM8 12.9614V12.9113H6V12.9614H8ZM8 13.0117V12.9614H6V13.0117H8ZM8 13.062V13.0117H6V13.062H8ZM8 13.1125V13.062H6V13.1125H8ZM8 13.1631V13.1125H6V13.1631H8ZM8 13.2138V13.1631H6V13.2138H8ZM8 13.2645V13.2138H6V13.2645H8ZM8 13.3154V13.2645H6V13.3154H8ZM8 13.3664V13.3154H6V13.3664H8ZM8 13.4176V13.3664H6V13.4176H8ZM8 13.4688V13.4176H6V13.4688H8ZM8 13.5201V13.4688H6V13.5201H8ZM8 13.5715V13.5201H6V13.5715H8ZM8 13.623V13.5715H6V13.623H8ZM8 13.6746V13.623H6V13.6746H8ZM8 13.7264V13.6746H6V13.7264H8ZM8 13.7782V13.7264H6V13.7782H8ZM8 13.8301V13.7782H6V13.8301H8ZM8 13.8821V13.8301H6V13.8821H8ZM8 13.9342V13.8821H6V13.9342H8ZM8 13.9864V13.9342H6V13.9864H8ZM8 14.0387V13.9864H6V14.0387H8ZM8 14.0911V14.0387H6V14.0911H8ZM8 14.1436V14.0911H6V14.1436H8ZM8 14.1962V14.1436H6V14.1962H8ZM8 14.2489V14.1962H6V14.2489H8ZM8 14.3016V14.2489H6V14.3016H8ZM8 14.3545V14.3016H6V14.3545H8ZM8 14.4074V14.3545H6V14.4074H8ZM8 14.4605V14.4074H6V14.4605H8ZM8 14.5136V14.4605H6V14.5136H8ZM8 14.5668V14.5136H6V14.5668H8ZM8 14.6201V14.5668H6V14.6201H8ZM8 14.6735V14.6201H6V14.6735H8ZM8 14.7269V14.6735H6V14.7269H8ZM8 14.7805V14.7269H6V14.7805H8ZM8 14.8341V14.7805H6V14.8341H8ZM8 14.8878V14.8341H6V14.8878H8ZM8 14.9416V14.8878H6V14.9416H8ZM8 14.9955V14.9416H6V14.9955H8ZM8 15.0494V14.9955H6V15.0494H8ZM8 15.1035V15.0494H6V15.1035H8ZM8 15.1576V15.1035H6V15.1576H8ZM8 15.2118V15.1576H6V15.2118H8ZM8 15.266V15.2118H6V15.266H8ZM8 15.3204V15.266H6V15.3204H8ZM8 15.3748V15.3204H6V15.3748H8ZM8 15.4293V15.3748H6V15.4293H8ZM8 15.4838V15.4293H6V15.4838H8ZM8 15.5385V15.4838H6V15.5385H8ZM8 15.5932V15.5385H6V15.5932H8ZM8 15.648V15.5932H6V15.648H8ZM8 15.7028V15.648H6V15.7028H8ZM8 15.7577V15.7028H6V15.7577H8ZM8 15.8127V15.7577H6V15.8127H8ZM8 15.8677V15.8127H6V15.8677H8ZM8 15.9229V15.8677H6V15.9229H8ZM8 15.978V15.9229H6V15.978H8ZM8 16.0333V15.978H6V16.0333H8ZM8 16.0886V16.0333H6V16.0886H8ZM8 16.144V16.0886H6V16.144H8ZM8 16.1994V16.144H6V16.1994H8ZM8 16.2549V16.1994H6V16.2549H8ZM8 16.3105V16.2549H6V16.3105H8ZM8 16.3661V16.3105H6V16.3661H8ZM8 16.4218V16.3661H6V16.4218H8ZM8 16.4775V16.4218H6V16.4775H8ZM8 16.5333V16.4775H6V16.5333H8ZM8 16.5891V16.5333H6V16.5891H8ZM8 16.645V16.5891H6V16.645H8ZM8 16.701V16.645H6V16.701H8ZM8 16.757V16.701H6V16.757H8ZM8 16.8131V16.757H6V16.8131H8ZM8 16.8692V16.8131H6V16.8692H8ZM8 16.9254V16.8692H6V16.9254H8ZM8 16.9816V16.9254H6V16.9816H8ZM8 17.0379V16.9816H6V17.0379H8ZM8 17.0942V17.0379H6V17.0942H8ZM8 17.1506V17.0942H6V17.1506H8ZM8 17.207V17.1506H6V17.207H8ZM8 17.2635V17.207H6V17.2635H8ZM8 17.32V17.2635H6V17.32H8ZM8 17.3766V17.32H6V17.3766H8ZM8 17.4332V17.3766H6V17.4332H8ZM8 17.4898V17.4332H6V17.4898H8ZM8 17.5465V17.4898H6V17.5465H8ZM8 17.6032V17.5465H6V17.6032H8ZM8 17.66V17.6032H6V17.66H8ZM8 17.7168V17.66H6V17.7168H8ZM8 17.7737V17.7168H6V17.7737H8ZM8 17.8306V17.7737H6V17.8306H8ZM8 17.8875V17.8306H6V17.8875H8ZM8 17.9445V17.8875H6V17.9445H8ZM8 18.0015V17.9445H6V18.0015H8ZM8 18.0585V18.0015H6V18.0585H8ZM8 18.1156V18.0585H6V18.1156H8ZM8 18.1727V18.1156H6V18.1727H8ZM8 18.2299V18.1727H6V18.2299H8ZM8 18.287V18.2299H6V18.287H8ZM8 18.3442V18.287H6V18.3442H8ZM8 18.4015V18.3442H6V18.4015H8ZM8 18.4587V18.4015H6V18.4587H8ZM8 18.516V18.4587H6V18.516H8ZM8 18.5734V18.516H6V18.5734H8ZM8 18.6307V18.5734H6V18.6307H8ZM8 18.6881V18.6307H6V18.6881H8ZM8 18.7455V18.6881H6V18.7455H8ZM8 18.8029V18.7455H6V18.8029H8ZM8 18.8604V18.8029H6V18.8604H8ZM8 18.9179V18.8604H6V18.9179H8ZM8 18.9754V18.9179H6V18.9754H8ZM8 19.0329V18.9754H6V19.0329H8ZM8 19.0904V19.0329H6V19.0904H8ZM8 19.148V19.0904H6V19.148H8ZM8 19.2056V19.148H6V19.2056H8ZM8 19.2632V19.2056H6V19.2632H8ZM8 19.3208V19.2632H6V19.3208H8ZM8 19.3784V19.3208H6V19.3784H8ZM8 19.4361V19.3784H6V19.4361H8ZM8 19.4937V19.4361H6V19.4937H8ZM8 19.5514V19.4937H6V19.5514H8ZM8 19.6091V19.5514H6V19.6091H8ZM8 19.6668V19.6091H6V19.6668H8ZM8 19.7245V19.6668H6V19.7245H8ZM8 19.7823V19.7245H6V19.7823H8ZM8 19.84V19.7823H6V19.84H8ZM8 19.8978V19.84H6V19.8978H8ZM8 19.9555V19.8978H6V19.9555H8ZM8 20.0133V19.9555H6V20.0133H8ZM8 20.0711V20.0133H6V20.0711H8ZM8 20.1288V20.0711H6V20.1288H8ZM8 20.1866V20.1288H6V20.1866H8ZM8 20.2444V20.1866H6V20.2444H8ZM8 20.3022V20.2444H6V20.3022H8ZM8 20.36V20.3022H6V20.36H8ZM8 20.4178V20.36H6V20.4178H8ZM8 20.4756V20.4178H6V20.4756H8ZM8 20.5334V20.4756H6V20.5334H8ZM8 20.5912V20.5334H6V20.5912H8ZM8 20.649V20.5912H6V20.649H8ZM8 20.7068V20.649H6V20.7068H8ZM8 20.7646V20.7068H6V20.7646H8ZM8 20.8224V20.7646H6V20.8224H8ZM8 20.8802V20.8224H6V20.8802H8ZM8 20.9379V20.8802H6V20.9379H8ZM8 20.9957V20.9379H6V20.9957H8ZM8 21.0535V20.9957H6V21.0535H8ZM8 21.1113V21.0535H6V21.1113H8ZM8 21.169V21.1113H6V21.169H8ZM8 21.2267V21.169H6V21.2267H8ZM8 21.2845V21.2267H6V21.2845H8ZM8 21.3422V21.2845H6V21.3422H8ZM8 21.3999V21.3422H6V21.3999H8ZM8 21.4576V21.3999H6V21.4576H8ZM8 21.5153V21.4576H6V21.5153H8ZM8 21.573V21.5153H6V21.573H8ZM8 21.6306V21.573H6V21.6306H8ZM8 21.6883V21.6306H6V21.6883H8ZM8 21.7459V21.6883H6V21.7459H8ZM8 21.8035V21.7459H6V21.8035H8ZM8 21.8611V21.8035H6V21.8611H8ZM8 21.9187V21.8611H6V21.9187H8ZM8 21.9762V21.9187H6V21.9762H8ZM8 22.0337V21.9762H6V22.0337H8ZM8 22.0912V22.0337H6V22.0912H8ZM8 22.1487V22.0912H6V22.1487H8ZM8 22.2062V22.1487H6V22.2062H8ZM8 22.2636V22.2062H6V22.2636H8ZM8 22.321V22.2636H6V22.321H8ZM8 22.3784V22.321H6V22.3784H8ZM8 22.4358V22.3784H6V22.4358H8ZM8 22.4931V22.4358H6V22.4931H8ZM8 22.5504V22.4931H6V22.5504H8ZM8 22.6077V22.5504H6V22.6077H8ZM8 22.665V22.6077H6V22.665H8ZM8 22.7222V22.665H6V22.7222H8ZM8 22.7794V22.7222H6V22.7794H8ZM8 22.8365V22.7794H6V22.8365H8ZM8 22.8936V22.8365H6V22.8936H8ZM8 22.9507V22.8936H6V22.9507H8ZM8 23.0078V22.9507H6V23.0078H8ZM8 23.0648V23.0078H6V23.0648H8ZM8 23.1218V23.0648H6V23.1218H8ZM8 23.1787V23.1218H6V23.1787H8ZM8 23.2356V23.1787H6V23.2356H8ZM8 23.2925V23.2356H6V23.2925H8ZM8 23.3493V23.2925H6V23.3493H8ZM8 23.4061V23.3493H6V23.4061H8ZM8 23.4629V23.4061H6V23.4629H8ZM8 23.5196V23.4629H6V23.5196H8ZM8 23.5762V23.5196H6V23.5762H8ZM8 23.6329V23.5762H6V23.6329H8ZM8 23.6894V23.6329H6V23.6894H8ZM8 23.746V23.6894H6V23.746H8ZM8 23.8025V23.746H6V23.8025H8ZM8 23.8589V23.8025H6V23.8589H8ZM8 23.9153V23.8589H6V23.9153H8ZM8 23.9716V23.9153H6V23.9716H8ZM8 24.0279V23.9716H6V24.0279H8ZM8 24.0842V24.0279H6V24.0842H8ZM8 24.1404V24.0842H6V24.1404H8ZM8 24.1965V24.1404H6V24.1965H8ZM8 24.2526V24.1965H6V24.2526H8ZM8 24.3086V24.2526H6V24.3086H8ZM8 24.3646V24.3086H6V24.3646H8ZM8 24.4205V24.3646H6V24.4205H8ZM8 24.4764V24.4205H6V24.4764H8ZM8 24.5322V24.4764H6V24.5322H8ZM8 24.588V24.5322H6V24.588H8ZM8 24.6437V24.588H6V24.6437H8ZM8 24.6993V24.6437H6V24.6993H8ZM8 24.7549V24.6993H6V24.7549H8ZM8 24.8104V24.7549H6V24.8104H8ZM8 24.8659V24.8104H6V24.8659H8ZM8 24.9213V24.8659H6V24.9213H8ZM8 24.9766V24.9213H6V24.9766H8ZM8 25.0319V24.9766H6V25.0319H8ZM8 25.0871V25.0319H6V25.0871H8ZM8 25.1422V25.0871H6V25.1422H8ZM8 25.1973V25.1422H6V25.1973H8ZM8 25.2523V25.1973H6V25.2523H8ZM8 25.3072V25.2523H6V25.3072H8ZM8 25.3621V25.3072H6V25.3621H8ZM8 25.4169V25.3621H6V25.4169H8ZM8 25.4716V25.4169H6V25.4716H8ZM8 25.5263V25.4716H6V25.5263H8ZM8 25.5809V25.5263H6V25.5809H8ZM8 25.6354V25.5809H6V25.6354H8ZM8 25.6898V25.6354H6V25.6898H8ZM8 25.7442V25.6898H6V25.7442H8ZM8 25.7985V25.7442H6V25.7985H8ZM8 25.8527V25.7985H6V25.8527H8ZM8 25.9068V25.8527H6V25.9068H8ZM8 25.9609V25.9068H6V25.9609H8ZM8 26.0149V25.9609H6V26.0149H8ZM8 26.0688V26.0149H6V26.0688H8ZM8 26.1226V26.0688H6V26.1226H8ZM8 26.1764V26.1226H6V26.1764H8ZM8 26.23V26.1764H6V26.23H8ZM8 26.2836V26.23H6V26.2836H8ZM8 26.3371V26.2836H6V26.3371H8ZM8 26.3905V26.3371H6V26.3905H8ZM8 26.4438V26.3905H6V26.4438H8ZM8 26.4971V26.4438H6V26.4971H8ZM8 26.5502V26.4971H6V26.5502H8ZM8 26.6033V26.5502H6V26.6033H8ZM8 26.6563V26.6033H6V26.6563H8ZM8 26.7091V26.6563H6V26.7091H8ZM8 26.7619V26.7091H6V26.7619H8ZM8 26.8146V26.7619H6V26.8146H8ZM8 26.8673V26.8146H6V26.8673H8ZM8 26.9198V26.8673H6V26.9198H8ZM8 26.9722V26.9198H6V26.9722H8ZM8 27V26.9722H6V27H8ZM30 26H7V28H30V26ZM29 7V27H31V7H29Z"
        fill="#999B9C"
        mask="url(#path-4-inside-1)"
      />
      <path
        d="M13.7991 7.021L7.00006 14"
        stroke="#999B9C"
      />
    </g>
  </svg>
