<svg width="26" height="26" viewBox="0 0 26 26" fill="none" xmlns="http://www.w3.org/2000/svg">
<rect opacity="0.5" x="0.5" y="0.5" width="25" height="25" rx="3.5" stroke="white"/>
<mask id="mask0" mask-type="alpha" maskUnits="userSpaceOnUse" x="0" y="0" width="26" height="26">
<rect x="0.5" y="0.5" width="25" height="25" rx="3.5" fill="white" stroke="white"/>
</mask>
<g mask="url(#mask0)">
<path opacity="0.5" d="M13.4113 12.3887H19.2887C19.5711 12.3887 19.8 12.6176 19.8 12.9C19.8 13.1824 19.5711 13.4113 19.2887 13.4113H13.4113V19.2887C13.4113 19.5711 13.1824 19.8 12.9 19.8C12.6176 19.8 12.3887 19.5711 12.3887 19.2887V13.4113H6.51125C6.2289 13.4113 6 13.1824 6 12.9C6 12.6176 6.2289 12.3887 6.51125 12.3887H12.3887V6.51125C12.3887 6.2289 12.6176 6 12.9 6C13.1824 6 13.4113 6.2289 13.4113 6.51125V12.3887Z" fill="white" stroke="white" stroke-width="0.2"/>
</g>
</svg>
