<svg width="28" height="28" viewBox="0 0 28 28" fill="none" xmlns="http://www.w3.org/2000/svg">
<path d="M14 7L14 14H7" stroke="#979797"/>
<rect x="0.5" y="0.5" width="27" height="27" rx="3.5" stroke="#999B9C"/>
<mask id="mask0" mask-type="alpha" maskUnits="userSpaceOnUse" x="0" y="0" width="28" height="28">
<rect x="0.5" y="0.5" width="27" height="27" rx="3.5" fill="white" stroke="white"/>
</mask>
<g mask="url(#mask0)">
<mask id="path-4-inside-1" fill="white">
<path fill-rule="evenodd" clip-rule="evenodd" d="M6 13.7782V27V28H7H30H31V27V7V6H30H13.7782L13.799 6.02081L12.8198 7H30V27H7V12.8198L6.02082 13.799L6 13.7782Z"/>
</mask>
<path d="M6 13.7782L6.70711 13.0711L5 11.364V13.7782H6ZM6 28H5V29H6V28ZM31 28V29H32V28H31ZM31 6H32V5H31V6ZM13.7782 6V5H11.364L13.0711 6.70711L13.7782 6ZM13.799 6.02081L14.5061 6.72792L15.2132 6.02082L14.5061 5.31371L13.799 6.02081ZM12.8198 7L12.1127 6.29289L10.4056 8H12.8198V7ZM30 7H31V6H30V7ZM30 27V28H31V27H30ZM7 27H6V28H7V27ZM7 12.8198H8V10.4056L6.29289 12.1127L7 12.8198ZM6.02082 13.799L5.31371 14.5061L6.02081 15.2132L6.72792 14.5061L6.02082 13.799ZM5 13.7782V27H7V13.7782H5ZM5 27V28H7V27H5ZM6 29H7V27H6V29ZM7 29H30V27H7V29ZM30 29H31V27H30V29ZM32 28V27H30V28H32ZM32 27V7H30V27H32ZM32 7V6H30V7H32ZM31 5H30V7H31V5ZM30 5H13.7782V7H30V5ZM13.0711 6.70711L13.0919 6.72792L14.5061 5.31371L14.4853 5.29289L13.0711 6.70711ZM13.0919 5.31371L12.1127 6.29289L13.5269 7.70711L14.5061 6.72792L13.0919 5.31371ZM30 6H12.8198V8H30V6ZM31 27V7H29V27H31ZM7 28H30V26H7V28ZM6 12.8198V27H8V12.8198H6ZM6.29289 12.1127L5.31371 13.0919L6.72792 14.5061L7.70711 13.5269L6.29289 12.1127ZM6.72792 13.0919L6.70711 13.0711L5.29289 14.4853L5.31371 14.5061L6.72792 13.0919Z" fill="#999B9C" mask="url(#path-4-inside-1)"/>
</g>
</svg>
